<mxfile host="app.diagrams.net" modified="2023-10-07T09:39:13.202Z" agent="Mozilla/5.0 (X11; Linux x86_64) AppleWebKit/537.36 (KHTML, like Gecko) Chrome/116.0.0.0 Safari/537.36" etag="-l1151iK-VfkJfufifEe" version="22.0.4" type="google" pages="5">
  <diagram name="Página-1" id="gCDGjCwxP0iLmrof1n6c">
    <mxGraphModel grid="1" page="1" gridSize="10" guides="1" tooltips="1" connect="1" arrows="1" fold="1" pageScale="1" pageWidth="827" pageHeight="1169" math="0" shadow="0">
      <root>
        <mxCell id="0" />
        <mxCell id="1" parent="0" />
        <mxCell id="uZbsIc89s6tYqEVM9KEG-1" value="Usuario" style="shape=umlActor;verticalLabelPosition=bottom;verticalAlign=top;html=1;outlineConnect=0;" vertex="1" parent="1">
          <mxGeometry x="90" y="100" width="30" height="60" as="geometry" />
        </mxCell>
        <mxCell id="uZbsIc89s6tYqEVM9KEG-2" value="Leer detalles libro sugerido&lt;br&gt;----------------&lt;br&gt;si le interesa" style="ellipse;whiteSpace=wrap;html=1;" vertex="1" parent="1">
          <mxGeometry x="150" y="50" width="170" height="70" as="geometry" />
        </mxCell>
        <mxCell id="uZbsIc89s6tYqEVM9KEG-3" value="Reservar libro" style="ellipse;whiteSpace=wrap;html=1;" vertex="1" parent="1">
          <mxGeometry x="344" y="125" width="70" height="40" as="geometry" />
        </mxCell>
        <mxCell id="uZbsIc89s6tYqEVM9KEG-4" value="" style="endArrow=none;html=1;rounded=0;exitX=0.5;exitY=0.5;exitDx=0;exitDy=0;exitPerimeter=0;entryX=0.075;entryY=0.775;entryDx=0;entryDy=0;entryPerimeter=0;" edge="1" parent="1" source="uZbsIc89s6tYqEVM9KEG-1" target="uZbsIc89s6tYqEVM9KEG-2">
          <mxGeometry width="50" height="50" relative="1" as="geometry">
            <mxPoint x="390" y="270" as="sourcePoint" />
            <mxPoint x="440" y="220" as="targetPoint" />
          </mxGeometry>
        </mxCell>
        <mxCell id="V8twOXWIq8d8b0GKGdxY-2" value="&amp;lt;&amp;lt;extends&amp;gt;&amp;gt;" style="text;html=1;strokeColor=none;fillColor=none;align=center;verticalAlign=middle;whiteSpace=wrap;rounded=0;" vertex="1" parent="1">
          <mxGeometry x="270" y="120" width="60" height="30" as="geometry" />
        </mxCell>
        <mxCell id="k9q3jlxistlGddNDOWqS-1" value="" style="endArrow=classic;html=1;rounded=0;entryX=0.994;entryY=0.657;entryDx=0;entryDy=0;entryPerimeter=0;exitX=0;exitY=0;exitDx=0;exitDy=0;" edge="1" parent="1" source="uZbsIc89s6tYqEVM9KEG-3" target="uZbsIc89s6tYqEVM9KEG-2">
          <mxGeometry width="50" height="50" relative="1" as="geometry">
            <mxPoint x="300" y="240" as="sourcePoint" />
            <mxPoint x="350" y="190" as="targetPoint" />
          </mxGeometry>
        </mxCell>
      </root>
    </mxGraphModel>
  </diagram>
  <diagram id="GE4VfLVbwTPNU2uoOzyi" name="Página-2">
    <mxGraphModel grid="1" page="1" gridSize="10" guides="1" tooltips="1" connect="1" arrows="1" fold="1" pageScale="1" pageWidth="827" pageHeight="1169" math="0" shadow="0">
      <root>
        <mxCell id="0" />
        <mxCell id="1" parent="0" />
        <mxCell id="m3UGtNnCJTf2aZoWiYL_-2" value="" style="rounded=0;whiteSpace=wrap;html=1;" vertex="1" parent="1">
          <mxGeometry x="120" y="80" width="320" height="200" as="geometry" />
        </mxCell>
        <mxCell id="m3UGtNnCJTf2aZoWiYL_-3" value="LIBRO X" style="text;html=1;strokeColor=none;fillColor=none;align=center;verticalAlign=middle;whiteSpace=wrap;rounded=0;fontStyle=1;fontSize=18;" vertex="1" parent="1">
          <mxGeometry x="182.5" y="100" width="195" height="30" as="geometry" />
        </mxCell>
        <mxCell id="Rv2pJ21V90kk-LdJNvll-1" value="&lt;h1 style=&quot;text-align: justify; line-height: 60%;&quot;&gt;&lt;span style=&quot;background-color: initial; font-size: 12px; font-weight: normal;&quot;&gt;Esta novela escrita por el escritor chileno Pepitp Giménez, narra las hazañas de un intrépido jubilado. Publicada en el año 4023, ganó el premio a la mejor novela de Marte, tu planeta de vacaciones&amp;nbsp;&lt;/span&gt;&lt;br&gt;&lt;/h1&gt;" style="text;html=1;strokeColor=none;fillColor=none;spacing=5;spacingTop=-20;whiteSpace=wrap;overflow=hidden;rounded=0;" vertex="1" parent="1">
          <mxGeometry x="167.5" y="120" width="225" height="120" as="geometry" />
        </mxCell>
        <mxCell id="LbP8NWgSDr6rwEfvnmNO-1" value="Volver" style="rounded=1;whiteSpace=wrap;html=1;fillColor=#dae8fc;strokeColor=#6c8ebf;" vertex="1" parent="1">
          <mxGeometry x="182.5" y="250" width="70" height="20" as="geometry" />
        </mxCell>
        <mxCell id="LbP8NWgSDr6rwEfvnmNO-2" value="Reservar libro" style="rounded=1;whiteSpace=wrap;html=1;fillColor=#dae8fc;strokeColor=#6c8ebf;" vertex="1" parent="1">
          <mxGeometry x="280" y="250" width="100" height="20" as="geometry" />
        </mxCell>
      </root>
    </mxGraphModel>
  </diagram>
  <diagram id="3RRdKtpIHOnCxINwJSFr" name="Página-3">
    <mxGraphModel grid="1" page="1" gridSize="10" guides="1" tooltips="1" connect="1" arrows="1" fold="1" pageScale="1" pageWidth="827" pageHeight="1169" math="0" shadow="0">
      <root>
        <mxCell id="0" />
        <mxCell id="1" parent="0" />
        <mxCell id="IrQbHV4SmrNgO42ADjUY-1" value="" style="rounded=0;whiteSpace=wrap;html=1;" vertex="1" parent="1">
          <mxGeometry x="120" y="80" width="320" height="260" as="geometry" />
        </mxCell>
        <mxCell id="CR7JcCu0R5pxRy4j_HyJ-1" value="Nombre" style="rounded=0;whiteSpace=wrap;html=1;" vertex="1" parent="1">
          <mxGeometry x="197.5" y="140" width="165" height="20" as="geometry" />
        </mxCell>
        <mxCell id="CR7JcCu0R5pxRy4j_HyJ-2" value="Apellido" style="rounded=0;whiteSpace=wrap;html=1;" vertex="1" parent="1">
          <mxGeometry x="197.5" y="170" width="165" height="20" as="geometry" />
        </mxCell>
        <mxCell id="CR7JcCu0R5pxRy4j_HyJ-3" value="Email" style="rounded=0;whiteSpace=wrap;html=1;" vertex="1" parent="1">
          <mxGeometry x="197.5" y="200" width="165" height="20" as="geometry" />
        </mxCell>
        <mxCell id="IrQbHV4SmrNgO42ADjUY-2" value="NOMBRE_SISTEMA" style="text;html=1;strokeColor=none;fillColor=none;align=center;verticalAlign=middle;whiteSpace=wrap;rounded=0;fontStyle=1;fontSize=18;" vertex="1" parent="1">
          <mxGeometry x="182.5" y="100" width="195" height="30" as="geometry" />
        </mxCell>
        <mxCell id="IrQbHV4SmrNgO42ADjUY-3" value="Usuario" style="rounded=0;whiteSpace=wrap;html=1;" vertex="1" parent="1">
          <mxGeometry x="197.5" y="230" width="165" height="20" as="geometry" />
        </mxCell>
        <mxCell id="IrQbHV4SmrNgO42ADjUY-4" value="Contraseña" style="rounded=0;whiteSpace=wrap;html=1;" vertex="1" parent="1">
          <mxGeometry x="197.5" y="260" width="165" height="20" as="geometry" />
        </mxCell>
        <mxCell id="IrQbHV4SmrNgO42ADjUY-7" value="Registrarse" style="rounded=1;whiteSpace=wrap;html=1;fillColor=#dae8fc;strokeColor=#6c8ebf;" vertex="1" parent="1">
          <mxGeometry x="230" y="300" width="100" height="20" as="geometry" />
        </mxCell>
      </root>
    </mxGraphModel>
  </diagram>
  <diagram id="d9zAb9GwU4LEdGDLmpGF" name="Página-4">
    <mxGraphModel grid="1" page="1" gridSize="10" guides="1" tooltips="1" connect="1" arrows="1" fold="1" pageScale="1" pageWidth="827" pageHeight="1169" math="0" shadow="0">
      <root>
        <mxCell id="0" />
        <mxCell id="1" parent="0" />
        <mxCell id="w1tBDhG3hcFLDgJxj2df-1" value="" style="rounded=0;whiteSpace=wrap;html=1;" vertex="1" parent="1">
          <mxGeometry x="120" y="80" width="320" height="200" as="geometry" />
        </mxCell>
        <mxCell id="w1tBDhG3hcFLDgJxj2df-2" value="NOMBRE_SISTEMA" style="text;html=1;strokeColor=none;fillColor=none;align=center;verticalAlign=middle;whiteSpace=wrap;rounded=0;fontStyle=1;fontSize=18;" vertex="1" parent="1">
          <mxGeometry x="182.5" y="100" width="195" height="30" as="geometry" />
        </mxCell>
        <mxCell id="w1tBDhG3hcFLDgJxj2df-3" value="Usuario" style="rounded=0;whiteSpace=wrap;html=1;" vertex="1" parent="1">
          <mxGeometry x="197.5" y="130" width="165" height="20" as="geometry" />
        </mxCell>
        <mxCell id="w1tBDhG3hcFLDgJxj2df-4" value="Contraseña" style="rounded=0;whiteSpace=wrap;html=1;" vertex="1" parent="1">
          <mxGeometry x="197.5" y="160" width="165" height="20" as="geometry" />
        </mxCell>
        <mxCell id="w1tBDhG3hcFLDgJxj2df-5" value="Iniciar sesión" style="rounded=1;whiteSpace=wrap;html=1;fillColor=#dae8fc;strokeColor=#6c8ebf;" vertex="1" parent="1">
          <mxGeometry x="230" y="210" width="100" height="20" as="geometry" />
        </mxCell>
        <mxCell id="w1tBDhG3hcFLDgJxj2df-6" value="Si no estás registrado:" style="text;html=1;strokeColor=none;fillColor=none;align=center;verticalAlign=middle;whiteSpace=wrap;rounded=0;" vertex="1" parent="1">
          <mxGeometry x="140" y="240" width="162.5" height="30" as="geometry" />
        </mxCell>
        <mxCell id="w1tBDhG3hcFLDgJxj2df-7" value="Registrarse" style="rounded=1;whiteSpace=wrap;html=1;fillColor=#dae8fc;strokeColor=#6c8ebf;" vertex="1" parent="1">
          <mxGeometry x="290" y="245" width="100" height="20" as="geometry" />
        </mxCell>
        <mxCell id="w1tBDhG3hcFLDgJxj2df-8" value="¡Datos incorrectos !" style="text;html=1;align=center;verticalAlign=middle;whiteSpace=wrap;rounded=0;fontColor=#FF0000;" vertex="1" parent="1">
          <mxGeometry x="225" y="180" width="110" height="30" as="geometry" />
        </mxCell>
      </root>
    </mxGraphModel>
  </diagram>
  <diagram id="AyGf0HzoaUv7Q3tg-i3V" name="Página-5">
    <mxGraphModel grid="1" page="1" gridSize="10" guides="1" tooltips="1" connect="1" arrows="1" fold="1" pageScale="1" pageWidth="827" pageHeight="1169" math="0" shadow="0">
      <root>
        <mxCell id="0" />
        <mxCell id="1" parent="0" />
        <mxCell id="ELrPXhUNqVEM4GoxlohT-1" value="" style="rounded=0;whiteSpace=wrap;html=1;" vertex="1" parent="1">
          <mxGeometry x="120" y="80" width="320" height="260" as="geometry" />
        </mxCell>
        <mxCell id="ELrPXhUNqVEM4GoxlohT-2" value="Nombre" style="rounded=0;whiteSpace=wrap;html=1;" vertex="1" parent="1">
          <mxGeometry x="197.5" y="140" width="165" height="20" as="geometry" />
        </mxCell>
        <mxCell id="ELrPXhUNqVEM4GoxlohT-3" value="Apellido" style="rounded=0;whiteSpace=wrap;html=1;" vertex="1" parent="1">
          <mxGeometry x="197.5" y="170" width="165" height="20" as="geometry" />
        </mxCell>
        <mxCell id="ELrPXhUNqVEM4GoxlohT-4" value="Email" style="rounded=0;whiteSpace=wrap;html=1;" vertex="1" parent="1">
          <mxGeometry x="197.5" y="200" width="165" height="20" as="geometry" />
        </mxCell>
        <mxCell id="ELrPXhUNqVEM4GoxlohT-5" value="NOMBRE_SISTEMA" style="text;html=1;strokeColor=none;fillColor=none;align=center;verticalAlign=middle;whiteSpace=wrap;rounded=0;fontStyle=1;fontSize=18;" vertex="1" parent="1">
          <mxGeometry x="182.5" y="100" width="195" height="30" as="geometry" />
        </mxCell>
        <mxCell id="ELrPXhUNqVEM4GoxlohT-6" value="Usuario" style="rounded=0;whiteSpace=wrap;html=1;" vertex="1" parent="1">
          <mxGeometry x="197.5" y="230" width="165" height="20" as="geometry" />
        </mxCell>
        <mxCell id="ELrPXhUNqVEM4GoxlohT-7" value="Contraseña" style="rounded=0;whiteSpace=wrap;html=1;" vertex="1" parent="1">
          <mxGeometry x="197.5" y="260" width="165" height="20" as="geometry" />
        </mxCell>
        <mxCell id="ELrPXhUNqVEM4GoxlohT-8" value="Registrarse" style="rounded=1;whiteSpace=wrap;html=1;fillColor=#dae8fc;strokeColor=#6c8ebf;" vertex="1" parent="1">
          <mxGeometry x="230" y="310" width="100" height="20" as="geometry" />
        </mxCell>
        <mxCell id="K5cLQCc8c6zPdE4DAsoT-1" value="Error: algún dato no cumple el formato" style="text;html=1;align=center;verticalAlign=middle;whiteSpace=wrap;rounded=0;fontColor=#FF0000;" vertex="1" parent="1">
          <mxGeometry x="170" y="280" width="220" height="30" as="geometry" />
        </mxCell>
      </root>
    </mxGraphModel>
  </diagram>
</mxfile>
